<?xml version="1.0" standalone="no"?>
<!DOCTYPE svg PUBLIC "-//W3C//DTD SVG 20010904//EN"
 "http://www.w3.org/TR/2001/REC-SVG-20010904/DTD/svg10.dtd">
<svg version="1.0" xmlns="http://www.w3.org/2000/svg"
 width="300.000000pt" height="269.000000pt" viewBox="0 0 300.000000 269.000000"
 preserveAspectRatio="xMidYMid meet">
<metadata>
Created by potrace 1.10, written by Peter Selinger 2001-2011
</metadata>
<g transform="translate(0.000000,269.000000) scale(0.100000,-0.100000)"
fill="#000000" stroke="none">
<path d="M921 2666 c-21 -25 3 -97 43 -131 26 -22 34 -35 30 -51 -3 -12 9 -50
30 -96 20 -41 36 -82 36 -92 0 -9 11 -34 25 -56 14 -22 25 -42 25 -46 0 -3 11
-19 25 -36 14 -16 25 -36 25 -44 0 -8 4 -14 8 -14 11 0 28 -36 57 -117 16 -45
19 -65 11 -74 -8 -9 -5 -10 12 -6 17 4 21 2 14 -6 -13 -19 -9 -30 25 -67 38
-40 36 -48 -6 -27 -17 9 -33 12 -36 7 -3 -5 -2 -11 2 -13 15 -8 83 -18 83 -12
0 16 -42 95 -50 95 -5 0 -9 8 -8 18 3 40 -3 93 -10 88 -4 -2 -8 3 -9 12 -1 10
-3 24 -5 31 -2 9 10 18 30 24 35 11 39 18 19 39 -15 16 -67 96 -67 103 0 3
-16 29 -35 58 -19 28 -35 58 -35 65 0 7 -11 18 -25 24 -14 6 -25 16 -26 22 0
6 -2 32 -4 58 -4 78 -21 107 -66 114 -22 4 -39 11 -39 16 0 6 11 8 25 6 39 -8
32 22 -18 76 -45 48 -66 56 -86 32z m269 -456 c10 -19 30 -50 44 -69 14 -19
26 -40 26 -45 0 -6 -7 -2 -15 8 -8 11 -15 16 -15 11 0 -5 -10 11 -23 36 -13
24 -36 67 -51 94 -22 39 -23 44 -7 25 12 -14 30 -41 41 -60z"/>
<path d="M1993 2607 c-26 -38 -43 -82 -42 -105 0 -10 5 -6 11 10 8 22 12 25
23 15 9 -8 10 -16 3 -24 -8 -10 -6 -13 5 -13 8 0 18 6 20 13 4 9 6 9 6 -1 1
-7 6 -10 11 -7 6 3 10 0 10 -8 0 -8 -9 -17 -20 -20 -11 -3 -20 -1 -20 4 0 5
-5 9 -10 9 -6 0 -8 -11 -4 -25 4 -15 2 -25 -5 -25 -6 0 -11 12 -11 26 0 22 -2
25 -15 14 -8 -7 -15 -21 -15 -33 0 -11 -9 -34 -19 -51 l-20 -31 28 -16 c27
-16 28 -15 24 5 -4 23 12 54 22 44 4 -3 1 -16 -5 -28 -10 -18 -9 -25 4 -38 14
-14 16 -14 22 4 4 10 16 32 27 47 12 17 17 37 13 51 -3 12 1 32 9 43 8 11 17
45 21 75 11 93 -30 130 -73 65z"/>
<path d="M1900 2329 c0 -19 -29 -80 -31 -64 0 6 -4 1 -9 -10 -13 -30 -12 -83
3 -89 6 -2 1 -4 -13 -3 -36 3 -32 -25 4 -29 16 -2 32 -8 36 -14 4 -7 -15 -53
-43 -103 -59 -108 -55 -102 -64 -93 -4 3 1 20 10 35 9 16 17 35 17 43 0 7 14
31 31 51 23 28 29 41 20 50 -8 8 -18 4 -36 -13 -19 -18 -24 -20 -19 -7 3 10 1
17 -5 17 -6 0 -11 -13 -11 -29 0 -38 -20 -92 -31 -85 -5 3 -9 2 -10 -3 -7 -69
2 -83 64 -98 32 -8 37 -28 5 -23 -17 2 -23 -2 -24 -17 0 -11 4 -26 9 -33 7 -8
4 -18 -6 -30 -9 -10 -23 -34 -32 -55 -8 -20 -22 -37 -31 -37 -8 0 -12 -5 -9
-10 4 -6 1 -17 -5 -25 -10 -11 -10 -15 -1 -15 7 0 9 -6 6 -12 -4 -7 11 6 32
28 54 59 128 214 101 214 -6 0 -5 6 2 15 7 9 14 28 15 43 1 15 10 42 19 59 9
18 16 48 16 68 0 32 23 97 75 210 15 32 14 35 -7 39 -30 5 -63 19 -70 30 -5 7
-8 5 -8 -5z m5 -86 c-19 -51 -35 -76 -35 -54 0 19 42 112 48 107 3 -3 -3 -27
-13 -53z m65 24 c0 -17 -43 -86 -57 -91 -14 -6 -13 -3 4 16 12 13 22 28 23 33
1 22 12 45 21 45 5 0 9 -1 9 -3z m-104 -302 c-13 -33 -29 -61 -35 -63 -14 -5
-7 19 27 85 35 68 39 54 8 -22z"/>
<path d="M14 2145 c-13 -32 54 -96 116 -112 14 -3 35 -14 48 -24 13 -10 50
-20 90 -24 54 -6 73 -13 97 -35 17 -15 46 -39 65 -52 62 -41 134 -97 268 -209
13 -10 27 -19 31 -19 15 0 39 -39 39 -64 0 -15 7 -35 16 -45 9 -9 16 -25 16
-34 0 -9 4 -17 8 -17 4 0 14 -16 21 -35 7 -19 17 -35 22 -35 6 0 7 -9 4 -20
-5 -16 -2 -20 19 -20 28 0 44 17 23 26 -8 3 -13 15 -13 27 1 12 -7 31 -19 42
-11 11 -14 16 -6 10 13 -8 12 -5 -2 17 -9 15 -17 39 -17 54 0 24 2 25 18 13
15 -12 14 -11 -1 8 -11 12 -16 27 -12 32 3 6 1 11 -4 11 -6 0 -11 -7 -11 -15
0 -8 -4 -15 -9 -15 -5 0 -16 -3 -25 -6 -11 -4 -16 -1 -16 10 0 9 7 16 15 16 7
0 18 6 22 13 4 6 18 21 31 31 l22 19 -6 -33 c-5 -24 -4 -31 4 -26 7 4 12 1 13
-6 0 -7 5 0 10 16 8 27 4 35 -46 87 -30 31 -56 54 -59 52 -2 -3 -10 5 -16 17
-6 12 -14 19 -17 16 -3 -3 -18 3 -33 14 -16 11 -38 20 -49 20 -12 0 -21 6 -21
15 0 8 -3 14 -7 13 -11 -4 -115 67 -138 92 -10 11 -23 20 -30 20 -7 0 -20 9
-30 20 -10 12 -24 19 -31 16 -7 -3 -15 -2 -18 2 -4 3 -13 7 -21 8 -8 1 -40 14
-71 28 -31 14 -67 26 -80 26 -30 0 -74 -20 -74 -34 0 -6 -4 -4 -10 4 -11 18 6
41 26 33 10 -4 12 0 8 11 -16 42 -147 75 -160 41z m466 -235 c42 -34 59 -39
39 -12 -7 9 -1 6 14 -8 45 -39 11 -36 -49 5 -30 21 -54 39 -54 41 0 10 15 2
50 -26z m234 -114 c43 -18 126 -82 126 -97 0 -6 -21 6 -46 26 -26 19 -52 35
-58 35 -7 0 -32 13 -57 28 -37 24 -47 27 -57 15 -7 -7 -18 -10 -25 -6 -8 5 -8
8 1 11 7 2 12 10 12 17 0 21 23 24 45 5 11 -10 38 -25 59 -34z m8 -55 c15 -8
25 -19 21 -24 -3 -6 -1 -7 6 -3 6 4 24 -4 41 -17 24 -20 26 -26 14 -31 -10 -4
-39 12 -78 44 -73 57 -110 97 -61 64 17 -11 42 -26 57 -33z"/>
<path d="M1000 2121 c-15 -29 -13 -116 4 -130 8 -7 25 -9 40 -5 22 5 27 2 36
-21 6 -15 28 -48 50 -73 39 -43 40 -46 22 -62 -26 -24 -61 -42 -71 -36 -5 3
-14 -1 -21 -9 -9 -11 -9 -15 -1 -15 7 0 9 -4 6 -10 -3 -5 -1 -10 4 -10 6 0 11
-9 11 -19 0 -11 4 -22 8 -25 4 -3 7 8 6 25 -2 30 10 39 20 17 3 -7 4 0 1 15
-6 28 -6 28 20 11 29 -19 27 -20 41 21 5 16 18 31 28 33 11 3 16 0 12 -7 -4
-6 -1 -9 7 -5 22 8 16 34 -15 55 -23 17 -26 24 -17 35 6 8 8 14 4 14 -4 0 -1
8 6 17 12 14 12 16 0 9 -9 -6 -12 -5 -9 5 3 8 -8 27 -24 44 -15 16 -28 33 -28
38 0 4 -7 7 -15 7 -8 0 -24 5 -34 12 -24 15 -51 4 -51 -22 0 -11 -4 -20 -10
-20 -5 0 -10 9 -10 20 0 11 5 20 11 20 8 0 7 6 -2 17 -8 9 -9 14 -3 10 16 -9
25 18 11 32 -9 9 -2 10 28 5 35 -5 38 -4 26 10 -19 23 -78 21 -91 -3z"/>
<path d="M2375 2111 c-22 -10 -49 -28 -60 -41 -11 -12 -33 -29 -50 -37 -16 -9
-38 -26 -48 -39 -27 -35 -81 -84 -93 -84 -7 0 -84 -82 -95 -102 -5 -10 -14
-18 -20 -18 -6 0 -29 -16 -52 -35 -22 -19 -47 -35 -55 -35 -8 0 -27 -11 -44
-25 -16 -14 -35 -25 -42 -25 -6 0 -18 -10 -26 -22 -8 -12 -25 -32 -38 -44 -21
-20 -21 -22 -5 -35 9 -8 14 -9 11 -4 -4 6 10 22 30 35 20 14 40 29 43 34 6 8
69 -44 69 -57 0 -3 -9 -4 -20 -2 -22 4 -27 -10 -7 -19 6 -3 2 -3 -10 0 -21 5
-28 -4 -24 -29 1 -5 -3 -6 -9 -2 -5 3 -10 1 -10 -4 0 -6 -7 -11 -16 -11 -11 0
-15 -6 -12 -18 4 -15 0 -17 -22 -14 -27 4 -56 44 -45 62 3 4 -4 6 -15 3 -18
-5 -18 -7 -5 -34 8 -15 15 -30 15 -33 0 -8 -44 -3 -56 6 -6 4 -19 1 -30 -7
-22 -16 -38 -20 -29 -6 3 5 0 13 -7 17 -7 4 -10 3 -5 -1 4 -5 -1 -17 -10 -28
-17 -19 -17 -20 0 -14 15 6 16 4 7 -13 -7 -13 -16 -17 -27 -13 -15 6 -16 5 -3
-9 11 -11 20 -13 33 -6 10 5 15 13 12 18 -3 6 1 7 9 4 16 -6 19 2 17 36 0 10
1 11 5 2 3 -6 10 -10 15 -7 5 4 6 -1 2 -11 -5 -14 -3 -15 16 -5 23 13 45 6 36
-10 -4 -5 -1 -9 5 -9 7 0 9 8 5 19 -8 28 13 36 37 15 11 -10 32 -24 46 -29 24
-10 26 -16 24 -61 -2 -45 -1 -48 13 -30 8 11 15 26 15 33 0 13 54 29 103 32
15 0 27 -4 27 -10 0 -6 6 -7 12 -2 7 4 26 6 42 4 20 -2 26 1 21 10 -5 7 -4 10
3 5 14 -8 12 -66 -2 -66 -6 0 -20 6 -31 13 -11 6 -31 12 -45 12 -14 0 -29 5
-33 10 -5 6 -7 0 -4 -12 3 -13 1 -23 -4 -23 -5 0 -9 5 -9 10 0 19 -18 10 -23
-12 -5 -17 -9 -19 -21 -9 -12 10 -16 8 -21 -9 -3 -11 -11 -18 -16 -15 -5 4 -9
1 -9 -5 0 -8 -6 -8 -20 0 -11 6 -20 17 -20 25 0 7 -5 15 -12 17 -8 3 -6 12 6
29 17 28 13 39 -15 39 -10 0 -25 10 -34 23 l-17 22 7 -25 c4 -14 14 -29 21
-33 9 -5 11 -18 8 -36 -7 -33 25 -73 71 -88 26 -8 31 -7 40 11 6 11 25 23 45
27 46 10 265 2 287 -9 10 -6 41 -13 68 -17 46 -7 93 -18 185 -44 19 -5 71 -15
115 -21 58 -9 89 -19 114 -37 18 -15 50 -28 70 -30 20 -2 53 -10 74 -18 49
-20 131 -20 147 0 35 43 -29 91 -142 106 -74 9 -167 27 -188 36 -8 4 -23 7
-33 8 -9 1 -25 9 -35 17 -17 15 -178 45 -188 35 -3 -3 14 -10 38 -16 l43 -11
-39 5 c-21 2 -46 11 -56 20 -9 8 -22 15 -29 15 -6 0 -28 11 -49 24 -20 13 -61
32 -90 42 -44 16 -55 17 -73 6 -12 -8 -24 -11 -27 -7 -4 3 -1 10 6 14 7 4 -63
6 -155 5 -147 -2 -165 0 -148 13 11 7 20 17 21 21 2 18 17 42 26 42 5 0 16 6
23 13 34 30 45 37 56 37 7 0 10 3 7 6 -7 6 11 29 61 77 104 100 103 99 79 92
-13 -4 -27 -14 -31 -21 -5 -9 -26 -14 -54 -14 -33 0 -53 -6 -68 -20 -21 -20
-23 -20 -36 -3 -7 10 -10 15 -5 11 4 -3 24 5 44 18 29 20 44 24 72 19 27 -5
40 -2 50 9 7 9 22 16 34 16 27 0 64 25 53 36 -4 4 -7 2 -7 -4 0 -7 -4 -12 -9
-12 -15 0 -6 32 13 46 10 7 15 18 11 24 -4 6 -2 17 5 25 9 10 9 19 0 35 -11
20 -10 21 9 15 14 -4 26 0 38 14 10 12 22 21 27 21 14 0 -26 -41 -49 -51 -17
-6 -17 -8 -2 -8 20 -1 24 -21 3 -21 -18 0 -28 -27 -13 -34 8 -3 6 -10 -7 -20
-25 -21 -12 -21 18 -1 16 11 22 22 19 35 -4 15 0 20 15 20 22 0 68 39 96 83
10 14 30 29 46 32 15 3 47 25 69 48 73 73 39 122 -54 78z m-12 -84 c7 3 4 -3
-6 -14 -18 -21 -62 -40 -51 -22 3 5 -2 9 -11 9 -13 0 -14 4 -5 20 9 16 15 18
36 10 14 -6 31 -7 37 -3z m-213 -146 c0 -15 -77 -91 -92 -91 -8 -1 -6 -6 6
-15 11 -8 18 -15 15 -16 -36 -7 -48 -5 -38 8 6 7 8 13 3 13 -5 0 16 25 46 55
58 58 60 60 60 46z m-135 -201 c-12 -19 -85 -52 -85 -38 0 7 17 20 38 30 45
19 55 21 47 8z m-115 -35 c12 -19 28 -35 36 -35 9 0 13 -4 10 -9 -4 -5 -18 -5
-35 2 -17 6 -28 15 -25 19 3 4 0 8 -5 8 -6 0 -11 11 -11 25 0 33 4 32 30 -10z
m316 -257 c15 -13 35 -31 45 -42 11 -11 26 -17 38 -13 21 5 24 -8 6 -29 -12
-14 -28 -7 -19 7 3 6 -6 8 -22 6 -16 -2 -40 2 -54 10 -14 7 -35 13 -47 13 -12
0 -25 5 -28 10 -8 13 16 13 49 0 17 -6 26 -6 26 0 0 6 -8 10 -17 11 -12 1 -10
4 7 9 17 5 19 8 8 9 -10 1 -18 5 -18 10 0 4 -12 6 -27 4 -22 -4 -25 -2 -13 6
22 16 37 13 66 -11z m-101 -17 c0 -25 -3 -28 -17 -20 -28 15 -21 43 12 48 3 1
5 -12 5 -28z m321 -104 c4 -4 -8 -2 -27 3 -18 5 -40 17 -49 25 -12 13 -6 12
28 -3 23 -10 45 -22 48 -25z m44 1 c0 -6 8 -4 17 3 9 8 14 9 10 2 -5 -7 1 -13
15 -16 18 -3 15 -5 -8 -6 -18 0 -42 7 -55 18 l-24 20 23 -6 c12 -3 22 -10 22
-15z m150 -8 c0 -5 -9 -6 -20 -3 -14 4 -20 0 -20 -11 0 -9 -4 -16 -9 -16 -13
0 -20 39 -8 43 16 5 57 -4 57 -13z m110 -35 c0 -9 6 -12 17 -8 11 4 14 3 9 -5
-4 -7 -2 -12 3 -12 6 0 11 7 11 15 0 18 36 20 46 3 4 -7 0 -16 -9 -22 -14 -9
-13 -12 11 -22 26 -12 26 -12 -8 -7 -19 4 -37 9 -40 13 -8 11 -47 30 -62 30
-7 -1 -2 -7 11 -14 20 -11 21 -14 7 -19 -10 -4 -15 -3 -12 2 3 5 -2 12 -12 16
-16 6 -16 8 3 22 20 15 20 15 -2 8 -14 -4 -23 -2 -23 4 0 6 11 11 25 11 15 0
25 -6 25 -15z"/>
<path d="M1080 2084 c-14 -9 -18 -13 -9 -10 9 2 22 -1 28 -7 14 -14 25 -3 14
16 -7 14 -11 14 -33 1z"/>
<path d="M1285 1995 c4 -52 35 -147 58 -179 10 -14 21 -17 45 -11 18 3 32 10
32 15 0 4 -13 41 -30 81 -16 41 -30 79 -30 85 0 21 -40 63 -60 61 -16 -1 -18
-8 -15 -52z m76 -109 c33 -77 33 -76 19 -76 -13 0 -37 48 -60 123 -35 111 -18
92 41 -47z"/>
<path d="M710 2020 c-24 -15 -19 -106 8 -132 23 -23 43 -18 24 5 -24 28 1 25
29 -4 16 -16 29 -26 29 -22 0 4 5 0 11 -9 5 -10 13 -18 17 -18 11 0 32 61 26
74 -3 6 2 2 10 -8 9 -11 16 -23 16 -27 0 -4 10 -9 23 -13 23 -6 83 -73 73 -83
-3 -3 -17 9 -32 26 -32 38 -57 53 -78 45 -20 -8 -21 -50 -1 -58 8 -3 20 -17
27 -30 10 -23 16 -25 51 -20 23 2 47 10 54 16 15 12 18 68 3 68 -5 0 -10 7
-10 15 0 8 -4 15 -10 15 -6 0 -6 -9 0 -25 13 -35 6 -31 -18 10 -12 19 -32 37
-46 41 -15 3 -26 12 -26 20 0 8 -5 14 -11 14 -5 0 -7 5 -3 12 4 6 3 8 -3 5
-10 -6 -32 12 -82 67 -24 27 -55 33 -81 16z m58 -40 c7 -12 17 -18 23 -14 8 4
49 -30 49 -41 0 -9 -30 2 -35 13 -5 13 -8 13 -23 0 -15 -14 -19 -13 -42 8 -13
13 -19 24 -12 24 6 0 12 7 12 15 0 21 13 19 28 -5z m182 -220 c0 -16 -46 21
-64 52 -26 43 -18 43 24 -1 22 -22 40 -46 40 -51z"/>
<path d="M1437 1918 c-22 -12 -21 -37 2 -67 l18 -24 7 27 c7 28 26 36 26 11 0
-8 3 -14 8 -13 13 4 52 -13 52 -22 0 -5 -7 -7 -16 -3 -14 5 -15 1 -9 -25 5
-25 2 -33 -15 -42 -11 -6 -24 -8 -29 -6 -10 6 -25 -24 -16 -32 3 -3 5 -2 5 3
0 4 9 0 20 -10 11 -10 28 -15 39 -12 12 3 26 -2 33 -11 11 -13 11 -14 -2 -7
-13 8 -13 7 -1 -8 8 -10 9 -17 3 -17 -6 0 15 -25 47 -55 32 -30 61 -55 66 -55
4 0 -3 9 -16 20 -13 10 -19 19 -12 20 6 0 14 -4 17 -9 3 -5 14 -11 25 -14 28
-7 16 20 -18 39 l-26 15 33 -5 c18 -3 32 -1 32 4 0 6 -5 10 -11 10 -5 0 -7 4
-4 10 4 6 -1 7 -11 3 -16 -6 -53 29 -54 51 0 6 6 2 13 -9 14 -18 43 -13 32 6
-4 5 -1 9 4 9 6 0 11 6 11 13 0 8 10 22 21 33 29 26 50 76 38 90 -6 8 -4 14 6
18 9 3 15 0 15 -9 0 -8 4 -15 9 -15 14 0 0 41 -21 62 -24 24 -26 24 -34 -19
-11 -61 -33 -104 -70 -140 -22 -21 -36 -44 -37 -63 -1 -17 -5 -30 -9 -30 -5 0
-11 -1 -14 -2 -3 -2 -7 26 -10 62 -2 36 -6 79 -8 95 -2 17 -4 38 -5 47 -1 20
-55 78 -73 79 -7 0 -20 2 -29 4 -8 1 -23 -1 -32 -7z m123 -178 c0 -12 -41 -30
-53 -23 -4 3 -3 11 4 19 13 16 49 19 49 4z"/>
<path d="M994 1748 c-22 -25 -24 -30 -25 -55 0 -16 -1 -16 -8 1 -9 23 -41 30
-41 10 0 -9 5 -12 10 -9 14 9 51 -36 44 -55 -3 -8 -1 -11 3 -6 4 4 8 24 8 43
0 39 20 56 29 25 9 -26 35 -23 42 5 4 13 4 27 0 30 -3 4 -6 -3 -6 -15 0 -32
-15 -27 -18 5 -3 40 -16 46 -38 21z"/>
<path d="M1323 1747 c-17 -12 -36 -32 -41 -43 -9 -19 -8 -22 14 -20 23 1 35
16 13 16 -7 0 1 12 16 26 15 14 33 23 41 20 8 -3 11 0 7 10 -7 18 -11 17 -50
-9z"/>
<path d="M1390 1742 c0 -16 -4 -21 -12 -16 -10 5 -10 3 0 -7 15 -16 54 -19 64
-5 9 13 -11 38 -24 30 -6 -4 -14 0 -19 7 -6 10 -9 8 -9 -9z"/>
<path d="M1346 1663 c-8 -20 11 -25 28 -7 21 20 20 23 -4 21 -11 -1 -22 -7
-24 -14z"/>
<path d="M1480 1661 c0 -11 5 -23 10 -26 6 -4 7 -12 4 -18 -4 -7 -4 -9 1 -5 4
4 14 0 22 -8 9 -8 18 -12 21 -9 4 3 0 11 -8 16 -13 9 -13 10 0 6 20 -5 26 -47
8 -58 -10 -7 -10 -9 0 -9 6 0 12 -7 12 -16 0 -8 -4 -13 -9 -9 -5 3 -12 1 -16
-5 -3 -5 0 -10 7 -10 8 0 6 -5 -5 -11 -14 -8 -16 -14 -7 -24 7 -8 9 -24 5 -36
-7 -22 -8 -22 -20 7 l-12 29 -5 -27 c-3 -18 0 -29 9 -32 26 -10 31 -7 44 31 6
20 24 57 40 81 l28 44 -37 35 c-20 19 -49 43 -64 54 l-28 20 0 -20z"/>
<path d="M1216 1638 c6 -19 5 -21 -8 -11 -12 11 -21 6 -50 -27 -45 -49 -37
-62 9 -15 19 20 39 32 45 29 13 -8 28 15 21 33 -9 23 -25 14 -17 -9z"/>
<path d="M1246 1595 c-26 -19 -50 -35 -55 -35 -9 0 -41 -33 -41 -43 0 -14 22
-6 53 17 23 18 40 23 61 19 26 -5 27 -4 17 14 -8 16 -7 25 5 39 9 11 12 13 8
5 -5 -10 -3 -13 9 -8 11 4 14 2 10 -9 -3 -7 0 -14 6 -14 6 0 11 5 11 10 0 6 7
10 16 10 8 0 12 5 9 10 -4 6 -10 8 -15 5 -5 -3 -11 -1 -15 5 -11 18 -32 11
-79 -25z"/>
<path d="M1456 1618 c5 -8 2 -9 -9 -5 -12 5 -17 1 -17 -13 0 -18 3 -19 20 -8
21 14 27 38 9 38 -5 0 -7 -5 -3 -12z"/>
<path d="M1470 1585 c-6 -8 -9 -18 -6 -24 3 -5 2 -11 -3 -13 -4 -1 -11 -12
-15 -23 -4 -16 -1 -21 13 -22 19 -2 31 19 36 65 3 28 -9 36 -25 17z"/>
<path d="M1082 1535 c-1 -41 0 -45 13 -35 18 15 19 40 2 64 -11 15 -13 11 -15
-29z"/>
<path d="M1400 1553 c0 -6 -9 -9 -22 -5 -14 3 -19 2 -14 -6 7 -12 -5 -16 -31
-13 -18 2 -16 -14 2 -29 8 -7 15 -19 15 -27 0 -8 4 -12 10 -8 5 3 25 -11 44
-32 20 -21 36 -33 36 -26 0 6 -4 14 -10 18 -5 3 -7 13 -4 23 5 13 4 14 -4 4
-7 -11 -10 -9 -15 8 -3 12 -10 19 -16 15 -6 -3 -11 -1 -11 4 0 6 5 11 12 11 6
0 8 3 5 6 -4 4 -13 1 -21 -5 -10 -8 -16 -9 -21 -1 -3 5 -1 10 5 10 6 0 9 4 6
9 -3 5 1 14 9 21 12 10 15 10 15 -1 1 -9 4 -8 11 4 6 10 8 21 5 24 -3 4 -6 2
-6 -4z"/>
<path d="M1007 1483 c-4 -3 0 -15 10 -25 9 -10 11 -18 5 -18 -6 0 -14 -9 -17
-21 -4 -11 -13 -18 -20 -15 -16 6 -27 -18 -19 -39 4 -8 1 -15 -6 -15 -6 0 -8
5 -5 10 4 6 1 9 -7 8 -7 -2 -12 2 -11 8 1 7 -7 14 -17 17 -23 6 -26 -3 -7 -23
6 -8 3 -7 -9 3 -23 19 -44 22 -44 7 0 -5 -9 -10 -20 -10 -11 0 -20 -4 -20 -9
0 -13 -43 -22 -54 -11 -17 17 -27 11 -16 -10 6 -11 9 -24 6 -29 -6 -10 -64 -2
-72 10 -3 5 -10 9 -15 9 -6 0 -7 -5 -3 -12 4 -7 3 -8 -5 -4 -6 4 -18 3 -26 -4
-8 -7 -16 -7 -19 -1 -7 11 -46 3 -46 -11 0 -5 -9 -4 -21 2 -15 8 -24 8 -34 0
-8 -7 -19 -9 -25 -5 -5 3 -10 1 -10 -4 0 -6 10 -11 22 -11 25 0 14 -15 -17
-23 -12 -3 -5 -5 16 -6 24 -1 39 4 43 14 3 8 17 15 31 15 14 0 25 3 25 8 0 4
36 6 80 5 44 -1 80 2 80 7 0 4 8 6 18 3 19 -4 27 -33 10 -33 -5 0 -6 -4 -3
-10 4 -6 17 -4 36 6 37 19 163 31 173 16 4 -6 -17 -12 -57 -17 -34 -3 -83 -11
-108 -17 -51 -12 -81 -6 -74 15 5 10 -9 12 -62 9 -37 -2 -73 -9 -80 -14 -6 -5
-20 -8 -30 -7 -23 3 -54 -11 -48 -21 3 -4 -2 -10 -10 -14 -8 -3 -17 0 -21 6
-5 7 -2 8 6 3 9 -5 11 -4 6 3 -8 13 -46 16 -46 4 0 -4 -12 -9 -27 -10 -23 -1
-25 0 -13 9 12 9 11 10 -8 6 -12 -3 -20 -1 -16 4 3 5 16 9 30 9 13 0 24 5 24
10 0 6 -5 10 -11 10 -5 0 -7 5 -4 10 4 6 11 8 16 5 5 -3 6 1 3 9 -14 37 -114
5 -114 -36 0 -31 65 -88 91 -81 17 5 20 3 15 -8 -4 -8 2 -3 13 10 12 12 18 27
15 33 -3 5 7 3 23 -5 22 -12 33 -13 48 -4 21 11 219 12 237 1 5 -4 43 -8 82
-9 66 -3 76 -6 104 -35 32 -31 55 -33 50 -3 -2 9 5 17 14 18 20 4 34 -43 19
-58 -8 -8 -11 -7 -11 1 0 20 -28 14 -44 -10 -19 -26 -21 -47 -4 -30 14 14 32
16 24 3 -3 -4 5 -6 17 -4 12 3 32 20 45 38 14 23 27 32 37 29 11 -5 15 2 17
25 0 17 1 36 2 43 1 6 -5 13 -13 16 -10 3 -12 0 -8 -12 4 -9 1 -16 -6 -16 -8
0 -6 -4 3 -10 13 -8 13 -10 -2 -10 -9 0 -22 -8 -27 -17 -6 -10 -11 -13 -11 -6
0 7 -10 21 -22 32 -19 18 -20 24 -9 45 8 13 10 29 7 35 -9 14 -4 14 29 1 14
-5 23 -14 20 -20 -3 -5 3 -10 14 -10 12 0 21 4 21 8 0 15 -38 44 -49 37 -6 -3
-11 2 -11 13 0 16 -7 20 -34 20 l-33 0 14 -29 c17 -34 2 -109 -22 -109 -8 0
-15 5 -15 10 0 6 5 10 10 10 15 0 12 97 -2 107 -15 9 -118 12 -118 4 0 -3 -11
-6 -25 -6 -14 0 -25 3 -25 6 0 3 -13 4 -30 1 -18 -2 -30 0 -30 7 0 14 45 25
61 15 8 -4 9 -3 5 4 -4 7 -1 12 6 13 75 5 89 5 94 -2 7 -12 54 -11 54 1 0 5
11 20 25 34 30 30 41 71 25 91 -14 16 -23 19 -33 8z m-17 -252 c0 -13 -64 -20
-125 -14 -73 8 -62 16 27 20 39 1 73 5 76 8 6 6 22 -4 22 -14z"/>
<path d="M1300 1470 c6 -11 8 -25 5 -30 -4 -6 4 -14 17 -20 l23 -9 -22 -7
c-32 -9 -29 -22 3 -16 18 3 25 1 20 -6 -4 -6 3 -16 15 -23 17 -8 23 -8 29 1 4
7 13 9 19 6 6 -4 11 -2 11 3 0 6 -7 11 -16 11 -8 0 -13 4 -9 10 3 5 -8 16 -24
24 -40 21 -63 46 -57 62 3 8 -1 14 -10 14 -12 0 -13 -4 -4 -20z"/>
<path d="M1086 1449 c3 -10 1 -20 -5 -24 -6 -3 -11 -13 -11 -21 0 -19 -24 -44
-42 -44 -10 0 -9 -3 2 -10 11 -7 23 -1 47 22 37 36 39 46 18 74 -11 14 -14 15
-9 3z"/>
<path d="M1670 1409 c0 -5 -4 -8 -9 -4 -5 3 -22 -6 -37 -20 -15 -14 -22 -25
-16 -25 6 0 14 5 17 10 4 7 13 7 25 0 15 -8 21 -6 30 9 13 25 13 41 0 41 -5 0
-10 -5 -10 -11z"/>
<path d="M1675 1340 c-4 -6 -15 -8 -26 -5 -11 4 -19 2 -19 -4 0 -6 4 -11 10
-11 5 0 8 -6 6 -12 -1 -7 -1 -10 1 -5 3 4 11 7 18 7 7 0 15 9 18 20 6 22 2 26
-8 10z"/>
<path d="M1128 1328 c7 -7 12 -19 12 -28 0 -9 9 -25 19 -34 14 -13 18 -24 12
-39 -5 -12 -6 -28 -3 -36 3 -8 0 -11 -7 -7 -18 12 -13 -2 10 -23 15 -14 17
-21 8 -26 -8 -6 -10 -4 -4 6 4 8 -1 5 -12 -6 -14 -14 -17 -24 -11 -32 8 -9 18
-6 44 15 35 28 45 48 19 38 -8 -3 -14 0 -12 7 1 7 -6 11 -18 9 -16 -3 -18 -1
-7 9 6 7 12 24 13 39 0 24 1 24 16 -7 9 -18 23 -33 31 -33 8 0 12 -6 8 -15 -3
-10 1 -15 13 -15 10 0 20 -3 24 -6 11 -11 -5 -34 -25 -34 -10 0 -16 -4 -13
-10 3 -5 -3 -10 -14 -10 -27 0 -30 -40 -3 -40 14 -1 13 -4 -6 -20 -13 -11 -25
-25 -26 -32 -5 -31 -20 -64 -32 -73 -7 -5 -15 -29 -16 -52 -2 -23 -7 -41 -13
-40 -5 1 -11 -18 -11 -43 -1 -25 -9 -58 -18 -75 -8 -16 -13 -32 -9 -35 3 -3 8
1 10 8 8 20 32 14 26 -7 -2 -10 -12 -18 -20 -17 -9 0 -17 -8 -18 -19 -1 -11
-6 -36 -10 -55 -5 -19 -9 -44 -10 -55 -1 -11 -2 -32 -3 -47 -1 -16 -9 -28 -19
-31 -17 -4 -17 -5 0 -6 9 0 17 -5 17 -9 0 -5 -8 -17 -17 -28 -39 -44 -55 -88
-29 -78 16 6 31 -12 18 -20 -12 -7 6 -96 24 -120 11 -16 18 -17 37 -9 38 17
60 76 55 144 -3 36 0 60 6 62 8 3 7 14 -1 35 -6 18 -7 32 -2 32 5 0 9 7 9 15
0 9 9 44 19 78 29 92 33 117 20 117 -19 0 -39 -28 -33 -47 5 -15 4 -15 -5 -3
-12 17 -15 2 -5 -25 6 -13 9 -14 16 -3 8 10 9 10 5 -2 -2 -8 -9 -14 -15 -13
-6 2 -11 -10 -12 -25 -3 -70 -5 -79 -20 -77 -8 1 -13 9 -11 16 2 8 7 26 11 42
8 26 3 32 -22 28 -5 0 -8 6 -8 14 0 8 6 12 15 9 10 -4 16 3 20 23 4 15 8 34
11 41 2 6 -1 12 -6 12 -6 0 -10 5 -10 10 0 6 9 10 20 10 30 0 35 26 14 65 -15
29 -16 39 -5 74 17 58 33 52 25 -9 -4 -32 -2 -55 5 -64 6 -7 9 -20 6 -27 -3
-8 0 -21 5 -29 9 -13 11 -13 20 0 5 8 10 27 10 43 0 15 5 27 10 27 6 0 10 9
10 19 0 28 11 52 20 46 5 -3 11 8 15 24 3 16 13 35 21 42 8 6 14 18 14 25 0 8
4 14 9 14 13 0 42 60 35 71 -10 16 -37 10 -30 -7 4 -10 2 -13 -6 -8 -8 5 -9 2
-5 -9 7 -18 -13 -19 -25 -2 -11 15 -10 27 2 20 6 -3 10 -1 10 5 0 6 11 16 25
22 29 13 33 34 8 42 -31 9 -88 10 -102 1 -10 -6 -12 -4 -6 4 4 7 23 19 41 27
32 13 37 13 74 -11 47 -30 52 -20 10 20 -19 18 -26 31 -19 36 7 4 5 8 -6 12
-9 4 -13 3 -10 -3 13 -22 -16 -8 -64 30 -28 22 -51 46 -51 53 0 19 -45 59 -55
50 -4 -5 -5 -3 -1 4 9 16 -15 53 -33 53 -12 0 -12 -3 -3 -12z m192 -299 c0 -9
-6 -19 -12 -22 -21 -8 -52 -67 -36 -67 9 0 9 -3 2 -8 -6 -4 -15 -16 -21 -26
-9 -16 -7 -23 11 -37 12 -10 17 -21 12 -26 -5 -4 -11 -2 -13 5 -3 6 -11 12
-19 12 -8 0 -14 5 -14 11 0 7 -9 9 -23 6 -12 -4 -29 -2 -37 3 -12 8 -10 10 10
11 14 1 33 1 43 1 13 -2 17 3 15 15 -2 10 4 37 13 60 13 31 15 43 6 47 -7 2
-4 5 6 5 9 1 17 6 17 12 0 5 -5 7 -12 3 -6 -4 -9 -3 -5 2 10 16 57 10 57 -7z
m-84 -210 c-3 -17 -6 -42 -6 -56 0 -15 -4 -22 -11 -17 -8 5 -8 67 0 102 1 1 6
2 12 2 8 0 9 -11 5 -31z m-126 -324 c8 5 8 -51 -1 -59 -3 -3 -10 4 -17 14 -10
16 -9 18 4 13 14 -5 15 -3 5 15 -6 11 -11 24 -10 29 0 4 3 2 6 -5 2 -6 8 -10
13 -7z m23 -122 c-5 -115 -5 -113 -14 -113 -14 0 -22 22 -10 29 8 5 9 15 2 32
-10 24 -10 24 -10 2 -1 -13 -6 -23 -11 -23 -6 0 -8 15 -6 33 3 23 0 34 -9 34
-7 0 -11 -7 -8 -16 3 -12 2 -11 -7 2 -11 17 -4 64 7 53 4 -3 12 -1 20 6 11 8
12 7 7 -6 -3 -9 -1 -16 4 -16 6 0 12 -6 15 -12 2 -7 2 0 -1 16 -3 19 -1 26 7
22 7 -5 11 2 11 18 0 14 2 26 4 26 2 0 2 -39 -1 -87z"/>
<path d="M1190 1330 c8 -5 11 -10 5 -10 -5 0 2 -11 16 -23 14 -12 36 -37 49
-56 13 -19 26 -29 28 -23 2 7 10 12 18 12 11 0 12 4 3 19 -7 10 -20 16 -30 14
-11 -3 -19 2 -24 16 -6 20 -55 61 -72 61 -4 0 -1 -5 7 -10z"/>
<path d="M1428 1287 c-11 -11 -18 -13 -26 -5 -8 8 -9 5 -5 -11 4 -14 1 -21 -9
-21 -8 0 -23 -8 -34 -18 -11 -10 -25 -17 -31 -15 -20 7 -2 -37 20 -48 17 -10
19 -9 14 6 -9 22 11 58 28 51 7 -2 16 5 19 17 6 22 7 22 21 3 8 -11 18 -16 22
-13 3 4 3 7 -2 7 -4 0 -2 7 5 14 7 10 8 21 2 31 -8 15 -10 15 -24 2z"/>
<path d="M1519 1273 c-10 -11 -10 -14 -1 -9 7 4 12 1 12 -8 0 -19 16 -21 23
-3 5 15 -2 37 -13 37 -4 0 -14 -8 -21 -17z"/>
<path d="M1678 1271 c-16 -10 -25 -20 -22 -23 9 -10 64 16 64 29 0 17 -9 15
-42 -6z"/>
<path d="M1727 1259 c-23 -14 -22 -29 3 -24 11 2 20 -1 20 -6 0 -6 5 -7 10 -4
13 8 101 -5 95 -15 -2 -4 11 -6 29 -4 23 3 44 -3 70 -21 20 -14 42 -25 49 -24
7 0 3 5 -8 10 -20 9 -20 9 0 7 11 -2 26 1 34 6 9 6 12 5 7 -2 -3 -6 2 -15 11
-21 14 -8 15 -11 3 -11 -10 -1 -8 -4 5 -9 11 -5 25 -4 32 1 7 5 14 5 18 -2 3
-5 2 -10 -4 -10 -6 0 -8 -6 -5 -14 3 -7 -2 -16 -10 -19 -10 -4 -16 -1 -16 8 0
8 -5 15 -10 15 -7 0 -8 -6 -2 -16 6 -11 24 -18 48 -18 49 -2 58 2 43 20 -8 10
-8 14 0 14 6 0 11 5 11 12 0 6 -3 9 -6 5 -3 -3 -26 10 -50 28 -24 18 -53 36
-64 40 -11 3 -20 11 -20 16 0 5 -13 9 -28 9 -16 0 -37 7 -48 15 -10 8 -30 14
-44 13 l-25 -1 24 -4 c16 -3 20 -7 12 -12 -7 -5 -40 -2 -74 5 -34 7 -64 11
-66 8 -2 -2 -9 0 -15 5 -7 6 -18 6 -29 0z"/>
<path d="M1420 1215 c8 -9 6 -15 -7 -20 -10 -5 -24 -7 -30 -6 -19 3 -16 -19 3
-26 21 -8 45 7 55 34 6 16 3 22 -12 26 -16 4 -18 3 -9 -8z"/>
<path d="M1490 1203 c0 -13 5 -23 11 -23 6 0 9 6 6 13 -2 6 5 17 17 24 19 11
19 11 -7 10 -21 -2 -27 -7 -27 -24z"/>
<path d="M1570 1174 c0 -15 57 -16 63 -1 3 8 -7 12 -29 12 -19 0 -34 -5 -34
-11z"/>
<path d="M1831 1186 c2 -2 31 -6 64 -9 38 -4 53 -3 40 3 -19 8 -113 14 -104 6z"/>
<path d="M1538 1167 c-7 -8 -18 -12 -25 -10 -6 2 -14 -1 -18 -6 -10 -17 32
-13 49 5 16 15 20 24 12 24 -3 0 -11 -6 -18 -13z"/>
<path d="M1970 1127 c0 -3 14 -20 32 -36 33 -30 33 -57 1 -29 -20 16 -67 22
-58 7 4 -5 18 -15 33 -23 23 -12 31 -12 52 0 30 16 43 18 35 4 -3 -5 1 -10 9
-10 28 0 27 19 -1 26 -56 12 -57 13 -42 32 13 16 13 16 -5 2 -18 -14 -19 -13
-13 3 3 9 2 17 -2 17 -5 0 -16 3 -25 6 -9 3 -16 4 -16 1z"/>
<path d="M1440 1085 c0 -2 -9 -27 -20 -55 -11 -27 -16 -50 -11 -50 6 0 13 9
16 20 4 11 11 18 16 14 5 -3 8 0 7 7 -2 6 3 14 11 17 9 3 11 0 6 -9 -6 -11 -5
-12 6 -1 7 6 22 12 32 12 13 0 17 5 13 15 -4 11 0 15 11 13 9 -2 18 2 19 7 2
6 -20 11 -51 12 -30 2 -55 1 -55 -2z"/>
<path d="M2173 1073 c9 -2 17 -9 17 -15 0 -5 7 -8 14 -5 10 4 13 1 9 -9 -3 -8
1 -14 11 -14 9 0 16 4 16 9 0 15 -42 41 -65 40 -17 -1 -17 -2 -2 -6z"/>
<path d="M1876 1052 c-3 -4 10 -8 27 -8 18 1 32 -3 33 -9 3 -33 18 -65 32 -65
13 0 13 2 -1 18 -10 10 -14 22 -10 25 3 4 0 7 -7 7 -7 0 -10 3 -7 7 4 3 2 12
-4 20 -12 14 -55 18 -63 5z"/>
<path d="M1674 1006 c-3 -14 -3 -29 0 -35 4 -5 2 -12 -3 -16 -5 -3 -14 2 -19
11 -16 29 -23 -2 -7 -32 10 -19 15 -23 15 -12 0 11 5 15 15 12 12 -5 15 2 15
29 0 20 3 42 6 51 3 9 1 16 -5 16 -6 0 -13 -11 -17 -24z"/>
<path d="M2060 1015 c14 -17 13 -17 -10 -11 -17 5 -21 4 -11 -2 7 -5 9 -12 4
-15 -11 -7 -35 7 -33 19 1 5 -3 9 -9 11 -7 1 -7 -1 -2 -3 5 -3 8 -16 5 -29 -2
-13 0 -26 6 -30 5 -3 7 0 4 9 -5 12 0 12 33 1 35 -12 39 -12 49 7 7 14 14 17
18 9 4 -6 2 -11 -4 -11 -6 0 -8 -5 -4 -11 5 -8 10 -6 16 5 5 9 6 21 3 26 -7
11 51 8 62 -3 3 -4 16 -7 27 -7 53 1 -41 30 -109 34 -16 1 -37 6 -45 11 -13 8
-13 7 0 -10z"/>
<path d="M1475 1001 c3 -5 -4 -16 -15 -24 -11 -7 -17 -17 -12 -22 4 -4 -3 -3
-15 4 -20 10 -21 9 -18 -11 3 -13 6 -56 7 -96 1 -40 6 -76 10 -78 4 -3 8 -14
8 -26 0 -11 9 -32 19 -46 10 -15 19 -31 19 -35 1 -13 49 -47 55 -40 4 3 4 -4
2 -17 -3 -18 -1 -21 15 -17 13 3 20 0 20 -9 0 -8 4 -14 8 -14 4 0 16 -13 25
-30 10 -16 23 -30 29 -30 6 0 21 -11 33 -24 28 -31 125 -178 125 -191 0 -5 29
-25 64 -43 61 -32 139 -90 105 -79 -9 3 -16 0 -16 -6 0 -7 -2 -16 -3 -22 -6
-24 2 -32 33 -31 17 1 38 5 45 9 7 5 12 3 12 -7 0 -21 93 -93 131 -101 22 -5
36 -3 47 9 14 14 14 19 -6 60 -20 39 -97 106 -123 106 -3 0 -9 9 -12 20 -3 11
-17 22 -33 25 -50 11 -116 49 -128 75 -6 14 -20 33 -32 42 -12 10 -34 42 -50
73 -15 31 -32 59 -37 62 -6 3 -7 1 -3 -5 15 -25 -1 -10 -24 21 -19 26 -20 29
-3 14 11 -9 27 -17 36 -17 9 0 19 -4 22 -10 7 -12 25 -13 25 -2 0 15 -79 53
-103 50 -12 -2 -20 -7 -19 -12 4 -9 -16 -26 -30 -26 -5 0 -8 9 -8 21 0 21 -35
58 -56 59 -6 0 -19 9 -29 20 -10 12 -25 18 -33 15 -11 -4 -12 -2 -4 7 13 16 3
70 -11 65 -7 -2 -14 -14 -17 -28 -6 -23 -7 -22 -35 19 -25 38 -27 46 -16 64
11 18 11 20 -3 15 -21 -8 -20 2 2 19 20 16 36 18 27 4 -3 -5 -1 -10 4 -10 17
0 13 26 -8 51 -16 19 -22 22 -32 12 -15 -15 -29 -17 -29 -4 0 5 12 12 27 16
25 6 26 7 9 17 -15 8 -16 12 -5 20 11 7 11 11 1 15 -6 2 -9 9 -6 14 3 6 11 5
20 -2 9 -8 14 -8 14 -1 0 6 -8 15 -17 20 -24 14 -26 41 -2 35 24 -7 27 32 3
41 -8 3 -12 2 -9 -3z m301 -553 c22 -34 39 -64 39 -67 1 -14 17 -31 26 -26 5
4 9 2 9 -3 0 -5 11 -21 25 -34 24 -25 25 -26 5 -31 -11 -3 -18 -1 -15 3 3 5 1
11 -5 15 -5 3 -10 1 -10 -6 0 -7 -3 -9 -6 -6 -4 4 -1 14 7 24 8 9 9 14 2 10
-6 -4 -14 -3 -18 3 -12 19 -27 -2 -21 -29 6 -23 5 -24 -5 -7 -9 15 -9 24 0 38
9 15 9 23 0 34 -6 7 -15 11 -20 8 -5 -3 -6 3 -2 12 4 12 3 15 -5 10 -8 -5 -10
-1 -5 11 6 15 4 16 -9 5 -13 -10 -18 -10 -24 -1 -4 7 -3 9 4 5 13 -8 9 43 -4
52 -9 7 -18 42 -11 42 3 0 22 -28 43 -62z m250 -234 c18 -14 18 -15 -6 -8 -24
6 -24 5 -8 -12 14 -15 19 -15 33 -4 14 11 16 11 13 -1 -2 -9 4 -13 16 -11 15
3 17 0 11 -15 -4 -10 -8 -23 -8 -29 0 -13 -28 -14 -44 -1 -7 5 -13 6 -13 1 0
-5 -9 4 -19 20 -14 21 -17 35 -11 46 5 10 6 20 3 24 -13 13 14 5 33 -10z"/>
<path d="M1768 968 c-4 -10 -3 -18 2 -18 6 0 10 -15 11 -32 0 -27 2 -29 9 -13
7 19 9 18 19 -7 6 -16 16 -28 23 -28 9 0 9 3 0 12 -7 7 -12 20 -12 30 0 10 -7
18 -16 18 -10 0 -14 5 -10 16 3 8 2 12 -3 9 -5 -3 -11 3 -13 12 -3 17 -4 17
-10 1z"/>
<path d="M2157 956 c18 -25 53 -41 53 -25 0 5 -7 9 -15 9 -9 0 -19 8 -23 18
-4 9 -13 18 -20 20 -9 2 -7 -5 5 -22z"/>
<path d="M2250 965 c8 -9 9 -15 2 -15 -6 0 -14 5 -17 10 -3 6 -15 10 -26 10
-11 0 -17 -4 -14 -10 3 -5 13 -10 20 -10 23 0 84 -72 91 -107 6 -33 17 -42 29
-23 3 6 0 10 -7 10 -10 0 -10 2 1 9 11 7 9 13 -7 29 -11 11 -18 23 -15 25 8 9
-7 47 -19 47 -6 0 -5 -6 2 -16 12 -13 10 -14 -13 -3 -28 13 -27 29 1 29 15 1
15 2 -2 15 -26 19 -42 19 -26 0z"/>
<path d="M1848 953 c-10 -3 -18 -11 -18 -19 0 -17 12 -18 27 -3 8 8 13 8 17 0
4 -6 4 -11 0 -11 -4 0 3 -9 16 -20 13 -11 19 -20 13 -20 -5 0 -13 3 -17 7 -9
9 -46 11 -41 2 6 -9 56 -18 71 -12 13 5 12 7 -33 59 -10 12 -26 19 -35 17z"/>
<path d="M1745 901 c2 -47 7 -57 34 -78 17 -13 31 -29 31 -35 0 -7 -10 -2 -23
10 -29 27 -37 28 -30 2 3 -11 9 -17 14 -14 5 3 9 0 9 -7 0 -6 8 -9 20 -6 13 3
20 0 20 -8 0 -8 5 -17 11 -20 23 -15 -24 71 -54 97 -18 15 -27 27 -21 28 5 0
16 -6 24 -12 8 -7 7 -4 -2 7 -9 11 -21 36 -26 55 -9 33 -10 31 -7 -19z"/>
<path d="M1916 934 c-3 -8 -2 -12 4 -9 6 3 13 -1 16 -10 5 -13 9 -14 14 -4 10
16 1 39 -15 39 -7 0 -16 -7 -19 -16z"/>
<path d="M1705 908 c17 -58 26 -104 22 -119 -2 -9 2 -16 10 -16 8 0 12 6 9 14
-3 8 -11 43 -18 78 -6 36 -16 65 -21 65 -5 0 -6 -10 -2 -22z"/>
<path d="M1981 913 c8 -9 9 -14 3 -10 -7 4 -10 -2 -6 -18 2 -14 8 -27 12 -30
5 -3 6 5 2 17 -3 14 -2 19 6 14 13 -8 15 4 6 28 -3 9 -13 16 -21 16 -13 0 -13
-2 -2 -17z"/>
<path d="M2054 918 c-4 -7 -3 -8 4 -4 7 4 14 -3 18 -18 3 -14 13 -26 22 -28
12 -2 16 -16 18 -53 1 -28 3 -55 3 -61 1 -7 10 -14 22 -17 16 -4 19 -2 13 11
-4 9 -7 25 -8 34 0 9 -4 14 -8 12 -4 -3 -8 0 -8 6 0 21 25 4 30 -21 4 -18 12
-24 30 -24 16 0 29 -8 36 -23 15 -30 25 -32 35 -5 8 23 -12 50 -29 39 -11 -7
-62 16 -62 27 0 4 -10 21 -21 36 -12 16 -19 33 -16 38 3 5 -3 16 -14 23 -10 8
-19 20 -19 27 0 16 -36 17 -46 1z"/>
<path d="M2160 909 c0 -5 4 -8 10 -4 5 3 18 -12 30 -34 24 -48 26 -77 3 -39
-19 30 -43 44 -43 25 0 -7 5 -19 11 -27 9 -12 10 -11 5 5 -5 15 -1 13 14 -7
12 -15 27 -25 34 -22 8 3 21 -5 30 -18 9 -13 22 -23 28 -23 6 0 12 -10 13 -23
1 -16 -2 -21 -13 -17 -12 4 -13 3 -2 -10 10 -13 9 -15 -7 -15 -19 0 -43 -18
-43 -32 0 -4 7 -8 16 -8 8 0 13 4 10 9 -3 5 3 11 14 14 11 3 18 1 14 -4 -8
-14 6 -10 22 6 9 8 13 18 10 23 -2 4 -1 14 4 22 5 9 5 19 -2 27 -8 10 -7 12 6
7 33 -13 18 17 -29 56 -27 23 -28 23 -11 2 16 -18 17 -25 7 -35 -10 -9 -18 -5
-42 21 -29 32 -41 81 -16 66 8 -5 8 -3 -2 9 -7 9 -17 15 -21 12 -4 -3 -10 2
-14 10 -6 17 -36 21 -36 4z"/>
<path d="M1575 858 c-14 -41 -12 -57 6 -77 19 -20 19 -21 1 -53 -18 -32 -18
-34 0 -59 11 -14 20 -33 22 -43 1 -9 5 -15 8 -14 4 2 18 -8 32 -21 24 -22 25
-23 19 -2 -3 11 -9 21 -13 21 -13 0 -51 71 -55 103 -4 29 -3 29 32 24 35 -6
36 -6 15 9 -12 8 -22 25 -22 37 0 17 -2 19 -9 8 -13 -21 -30 16 -25 57 4 37 0
42 -11 10z"/>
<path d="M2040 841 c32 -26 33 -30 20 -47 -14 -17 -13 -18 1 -7 9 7 19 10 23
6 3 -4 1 8 -5 25 -6 18 -14 30 -19 27 -4 -3 -13 2 -20 10 -7 8 -17 15 -23 15
-6 0 4 -13 23 -29z"/>
<path d="M1927 839 c8 -8 9 -18 2 -33 -9 -19 -8 -19 7 2 9 12 23 22 32 22 22
0 12 6 -23 14 -24 6 -27 5 -18 -5z"/>
<path d="M1844 800 c1 -25 3 -27 12 -15 10 13 15 12 38 -10 36 -33 33 -17 -5
23 -37 40 -46 40 -45 2z"/>
<path d="M1530 786 c0 -3 4 -16 10 -30 11 -30 3 -34 -16 -8 -12 16 -14 16 -28
-3 -9 -12 -11 -21 -4 -24 6 -2 14 3 19 10 5 8 9 9 9 3 0 -6 -3 -14 -7 -18 -11
-11 -12 -35 -2 -42 5 -3 9 0 9 6 0 7 11 25 25 42 21 24 23 32 12 48 -11 18
-27 27 -27 16z"/>
<path d="M2026 759 c19 -22 19 -22 -8 -15 -18 4 -28 2 -28 -4 0 -6 -4 -8 -10
-5 -6 3 -7 -1 -4 -9 3 -9 10 -16 14 -16 5 0 17 -3 27 -6 16 -5 16 -4 -2 11
-20 17 -20 17 0 14 11 -2 25 0 32 4 6 4 14 3 18 -3 3 -5 13 -10 21 -10 8 0 12
5 9 10 -3 6 -1 10 5 10 6 0 8 5 5 10 -3 6 -19 10 -35 10 -16 0 -32 5 -35 10
-3 6 -11 10 -17 10 -6 0 -3 -10 8 -21z"/>
<path d="M1860 737 c0 -15 24 -57 33 -57 6 0 7 -3 4 -7 -9 -8 32 -53 47 -53 6
0 0 10 -14 21 -19 16 -20 19 -6 15 15 -5 17 -4 8 7 -7 8 -10 17 -7 20 3 4 2 5
-2 2 -3 -3 -19 9 -35 27 -15 17 -28 29 -28 25z"/>
<path d="M1681 721 c-12 -8 -13 -12 -1 -25 15 -19 22 -14 27 14 3 22 -4 25
-26 11z"/>
<path d="M1606 708 c24 -42 47 -68 60 -68 8 0 12 5 9 10 -4 6 -10 8 -15 5 -4
-3 -11 2 -14 11 -3 8 -2 12 4 9 22 -14 8 14 -15 29 -29 19 -39 20 -29 4z"/>
<path d="M1760 709 c0 -5 -4 -8 -9 -4 -13 8 -24 -31 -16 -57 6 -16 4 -20 -7
-15 -8 3 -15 -1 -15 -9 0 -7 5 -10 11 -7 7 4 6 1 -1 -8 -9 -11 -7 -19 9 -39
l21 -25 -8 33 c-7 33 10 47 21 17 4 -8 13 -15 20 -15 8 0 19 -11 24 -25 5 -14
12 -25 16 -25 3 0 4 6 1 14 -4 10 0 14 13 13 11 -1 21 -11 25 -24 5 -22 25
-33 25 -14 0 28 -21 60 -35 55 -14 -6 -19 9 -18 53 1 7 -3 10 -8 7 -5 -3 -9 0
-9 7 0 7 -3 10 -6 7 -3 -4 -1 -15 4 -25 7 -12 7 -25 1 -34 -5 -7 -9 -9 -10 -4
0 6 -2 23 -4 40 -2 16 0 35 6 41 7 8 7 14 0 18 -6 4 -15 -12 -22 -36 l-12 -43
-8 30 c-5 17 -6 42 -3 58 3 15 3 27 0 27 -3 0 -6 -5 -6 -11z"/>
<path d="M1836 705 c6 -14 4 -16 -7 -10 -8 5 -5 -2 6 -16 11 -13 20 -25 21
-27 1 -2 2 9 2 22 0 14 -7 31 -14 37 -12 10 -13 8 -8 -6z"/>
<path d="M2134 703 c4 -8 2 -13 -4 -13 -6 0 -8 -5 -4 -11 4 -8 9 -7 15 2 6 11
9 10 14 -3 4 -9 14 -19 23 -23 14 -5 14 -4 -1 13 -9 10 -14 23 -10 28 5 5 4 6
-1 2 -5 -4 -16 -2 -24 5 -13 9 -14 9 -8 0z"/>
<path d="M2050 689 c0 -5 5 -9 10 -9 15 0 12 -30 -2 -31 -7 0 0 -7 17 -14 16
-7 35 -11 41 -8 17 6 6 33 -13 33 -8 0 -11 -4 -8 -10 3 -5 1 -10 -4 -10 -15 0
-14 21 3 39 13 14 11 16 -15 17 -16 1 -29 -3 -29 -7z"/>
<path d="M1970 669 c0 -13 -4 -18 -12 -13 -7 4 -8 3 -4 -5 6 -9 11 -9 21 -1 7
6 25 8 39 4 16 -4 26 -2 26 5 0 6 -8 8 -17 4 -16 -6 -16 -5 -4 10 9 11 10 17
2 17 -6 0 -11 -5 -11 -12 0 -9 -3 -9 -12 0 -18 18 -28 15 -28 -9z"/>
<path d="M1870 649 c0 -8 7 -23 15 -33 8 -11 15 -29 15 -40 1 -12 10 -37 21
-56 14 -24 19 -28 15 -12 -5 24 11 31 20 7 9 -21 62 -46 68 -31 3 8 7 7 14 -3
5 -7 15 -10 21 -7 16 11 13 26 -5 26 -11 0 -15 6 -11 19 3 14 0 17 -14 14 -13
-4 -19 0 -19 11 0 9 -7 16 -16 16 -8 0 -13 4 -9 9 3 5 1 12 -5 16 -5 3 -10 15
-10 27 0 17 -2 19 -16 7 -14 -11 -13 -15 8 -31 16 -12 18 -18 8 -18 -10 0 -5
-8 13 -21 30 -23 35 -38 12 -35 -8 1 -26 16 -38 34 -13 17 -27 28 -31 24 -4
-4 -7 -2 -5 3 4 15 -17 59 -35 74 -13 11 -16 11 -16 0z"/>
<path d="M2200 640 c0 -3 5 -12 10 -20 8 -12 10 -12 10 -1 0 8 2 12 5 9 3 -3
-1 -17 -9 -32 -12 -24 -14 -25 -21 -9 -5 10 -7 25 -6 33 2 13 1 13 -8 0 -7
-10 -11 -11 -11 -3 0 7 -6 10 -14 7 -12 -5 -12 -8 2 -23 9 -10 20 -16 25 -14
12 7 8 -12 -5 -25 -10 -10 -10 -15 2 -22 25 -16 44 -7 59 27 10 22 22 33 39
35 14 2 32 13 40 26 l15 23 -67 -3 c-36 -1 -66 -5 -66 -8z"/>
<path d="M2067 588 c11 -18 13 -38 4 -38 -5 0 -6 -10 -4 -23 5 -26 42 -78 43
-59 0 7 5 10 10 7 6 -3 10 -2 10 4 0 5 -4 12 -9 15 -5 3 -7 15 -4 25 3 13 -2
23 -15 30 -13 7 -19 18 -17 31 2 13 -2 20 -11 20 -10 0 -12 -5 -7 -12z"/>
<path d="M2135 533 c3 -47 20 -68 31 -39 5 14 -20 86 -31 86 -2 0 -2 -21 0
-47z"/>
</g>
</svg>
